<?xml version="1.0" encoding="UTF-8" standalone="no"?>
<!-- Generator: Adobe Illustrator 21.1.0, SVG Export Plug-In . SVG Version: 6.00 Build 0)  -->

<svg
   xmlns:dc="http://purl.org/dc/elements/1.1/"
   xmlns:cc="http://creativecommons.org/ns#"
   xmlns:rdf="http://www.w3.org/1999/02/22-rdf-syntax-ns#"
   xmlns:svg="http://www.w3.org/2000/svg"
   xmlns="http://www.w3.org/2000/svg"
   xmlns:sodipodi="http://sodipodi.sourceforge.net/DTD/sodipodi-0.dtd"
   xmlns:inkscape="http://www.inkscape.org/namespaces/inkscape"
   version="1.1"
   x="0px"
   y="0px"
   viewBox="0 0 174.36657 43.842683"
   xml:space="preserve"
   sodipodi:docname="oaktre-logo.ng-general-small.2020-0708.svg"
   inkscape:version="0.92.3 (2405546, 2018-03-11)"
   width="174.36656"
   height="43.842682"><metadata
   id="metadata1095"><rdf:RDF><cc:Work
       rdf:about=""><dc:format>image/svg+xml</dc:format><dc:type
         rdf:resource="http://purl.org/dc/dcmitype/StillImage" /><dc:title></dc:title></cc:Work></rdf:RDF></metadata><defs
   id="defs1093" /><sodipodi:namedview
   pagecolor="#ffffff"
   bordercolor="#666666"
   borderopacity="1"
   objecttolerance="10"
   gridtolerance="10"
   guidetolerance="10"
   inkscape:pageopacity="0"
   inkscape:pageshadow="2"
   inkscape:window-width="3773"
   inkscape:window-height="2099"
   id="namedview1091"
   showgrid="false"
   inkscape:zoom="1.9032958"
   inkscape:cx="313.05825"
   inkscape:cy="46.687213"
   inkscape:window-x="67"
   inkscape:window-y="33"
   inkscape:window-maximized="1"
   inkscape:current-layer="Слой_1"
   fit-margin-top="0"
   fit-margin-left="5"
   fit-margin-bottom="0"
   fit-margin-right="5" />
<style
   type="text/css"
   id="style975">
	.st0{fill:#333333;}
	.st1{fill:#808080;}
	.st2{fill:url(#SVGID_1_);}
  .text{fill:#939393;}
</style>



<g
   id="g858"
   transform="matrix(0.54666686,0,0,0.54666686,-3.2000029,-8.2000029)"><g
     transform="translate(-125,-144.6)"
     id="g1088">
	<linearGradient
   y2="159.5"
   x2="180"
   y1="239.5"
   x1="180"
   gradientUnits="userSpaceOnUse"
   id="SVGID_1_">
		<stop
   id="stop1071"
   style="stop-color:#000046"
   offset="0" />
		<stop
   id="stop1073"
   style="stop-color:#031356"
   offset="7.415056e-02" />
		<stop
   id="stop1075"
   style="stop-color:#0C4C87"
   offset="0.312" />
		<stop
   id="stop1077"
   style="stop-color:#137AAD"
   offset="0.5318" />
		<stop
   id="stop1079"
   style="stop-color:#189AC9"
   offset="0.7267" />
		<stop
   id="stop1081"
   style="stop-color:#1BAEDA"
   offset="0.8894" />
		<stop
   id="stop1083"
   style="stop-color:#1CB5E0"
   offset="1" />
	</linearGradient>
	<path
   style="fill:url(#SVGID_1_)"
   inkscape:connector-curvature="0"
   id="path1086"
   d="m 219.9,197.3 c 0,-0.7 -0.1,-1.4 -0.2,-2 -0.5,0 -1.2,0.1 -2.2,0.1 0.6,-0.5 1.4,-0.9 2.1,-1.2 -0.1,-0.7 -0.2,-1.4 -0.3,-2.1 -1.1,0.4 -3.4,1.4 -4.2,3.1 -3,-0.3 -6.9,-1.1 -10.5,-3.3 -6.9,-4.3 -13.8,-6.1 -19.3,-0.8 1.9,-2.9 5,-3.9 8.6,-5.1 l 0.5,-0.2 c 3.4,2.8 8.6,3.7 13.3,3.8 0.2,0.6 0.5,1.2 1,1.7 1.8,1.7 5.2,1.5 5.9,1.5 v 0 l -0.2,-2 c 0,0 -3.1,0.3 -4.3,-0.9 -0.1,-0.1 -0.1,-0.1 -0.2,-0.2 3.9,-0.1 7.2,-0.6 8.6,-0.8 -0.2,-0.7 -0.4,-1.3 -0.6,-2 -1.8,0.3 -6.3,0.9 -10.9,0.7 0.5,-1.3 2.2,-2.6 4.1,-3.6 1.9,2.1 5.6,2.2 6.6,2.2 -0.2,-0.7 -0.5,-1.4 -0.8,-2.1 -1,-0.1 -2.6,-0.3 -3.7,-1 1,-0.4 2,-0.7 2.8,-0.9 -0.3,-0.6 -0.6,-1.2 -1,-1.9 -1.5,0.4 -4.8,1.5 -7.3,3.3 0,-0.7 0.5,-2 1.2,-3.1 v 0 l -1.7,-1.2 c -0.1,0.2 -2.5,3.7 -1.2,5.8 -0.6,0.7 -1.1,1.5 -1.3,2.3 -3,-0.3 -5.9,-1 -8.2,-2.5 4.2,-1.8 8.3,-4.9 11.2,-7.3 1.7,0.7 4,0 5.3,-0.5 -0.4,-0.6 -0.8,-1.2 -1.2,-1.7 -0.6,0.2 -1.3,0.4 -2,0.5 0.6,-0.5 1,-0.9 1.4,-1.3 -0.4,-0.5 -0.9,-1.1 -1.3,-1.6 -0.4,0.4 -1,0.9 -1.8,1.7 0.1,-0.7 0.4,-1.7 0.9,-2.7 -0.5,-0.5 -1,-1 -1.5,-1.5 -0.6,1.1 -2,3.9 -1.2,5.7 -2.8,2.3 -6.8,5.2 -10.7,6.9 0,-2.2 0.9,-4 1.9,-5.5 2.5,1 6.1,-2.1 6.1,-2.1 l -1.3,-1.6 c -0.7,0.6 -2,1.4 -3,1.7 1.1,-1 2,-1.6 2.1,-1.7 v 0 l -1.1,-1.8 c -0.1,0.1 -1.3,0.8 -2.7,2.2 0,-1.3 1.3,-2.7 1.3,-2.7 v 0 l -1.5,-1.4 c -0.2,0.2 -2.9,3.3 -1.3,5.9 -1.4,1.9 -2.6,4.5 -2.4,7.5 -0.1,0 -0.3,0.1 -0.4,0.1 -4.2,1.4 -8.1,2.7 -10.3,7.1 0.3,-2.4 0.8,-4.7 1.4,-6.8 4.3,0.5 7.4,-2.7 8.6,-4.7 v 0 l -1.8,-1 c 0,0 -0.7,1.1 -1.8,2.1 0.2,-0.8 0.9,-2.1 1.6,-3.1 v 0 l -1.7,-1.2 c -0.1,0.1 -2.4,3.3 -2.1,5.3 l 1,-0.2 c 0,0 0,0 0,0 l -1,0.2 c 0,0.1 0,0.2 0.1,0.3 -0.7,0.3 -1.5,0.4 -2.3,0.4 2.6,-6.8 8.2,-11.4 12.2,-13.9 2.9,1.7 5.9,0.6 7.3,-0.3 l 0.1,-0.1 c -0.6,-0.5 -1.2,-0.9 -1.8,-1.3 -0.7,0.3 -2,0.8 -3.5,0.5 1.3,-0.7 2.1,-1 2.1,-1 v 0 l -0.2,-0.4 c -0.6,-0.4 -1.1,-0.7 -1.7,-1 -1.7,0.8 -5,2.6 -8.3,5.5 -1.2,-1.7 -1.4,-3.3 -1.2,-4.7 2.2,-0.3 4.5,-2.4 5,-3 -0.7,-0.3 -1.4,-0.6 -2.2,-0.8 -0.7,0.6 -1.5,1.1 -2.2,1.5 0.4,-0.9 0.8,-1.5 1.1,-1.8 -0.7,-0.2 -1.4,-0.4 -2.1,-0.6 -0.3,0.5 -0.7,1.2 -1,2 -0.2,-0.6 -0.4,-1.5 -0.4,-2.3 -0.7,-0.1 -1.4,-0.3 -2,-0.4 0,1.4 0.2,4.1 1.8,5.1 -0.2,1.4 -0.1,3 0.7,4.6 -2.8,-1.1 -4.5,-3 -5.5,-5 1.5,-1.1 2,-3 1.9,-4.9 -0.7,-0.1 -1.4,-0.2 -2.1,-0.2 0.1,0.6 0.1,2.1 -0.7,3.1 -0.4,-1.3 -0.6,-2.5 -0.6,-3.1 -0.6,0 -1.2,0 -1.8,0 -0.1,0 -0.2,0 -0.3,0 0.1,0.8 0.2,2.3 0.8,4 -0.7,-0.1 -1.2,-0.3 -1.6,-0.6 -1.3,-1 -1.6,-2.7 -1.7,-3.3 -0.7,0 -1.4,0.1 -2,0.2 0.1,0.8 0.6,3.3 2.6,4.8 0.8,0.6 2,1.1 3.7,1 1.3,2.7 3.7,5.3 7.9,6.5 -2.7,2.7 -5.2,6.3 -6.6,10.6 -1.5,4.6 -2.2,10.9 -2.6,16.1 -0.4,-5.2 -1.1,-11.6 -2.6,-16.1 -0.3,-0.8 -0.6,-1.6 -0.9,-2.4 1.6,-0.6 2.5,-2 3,-3.7 1.8,-0.2 2.9,-1 3.5,-1.7 1.5,-1.7 1.2,-4 1.2,-4.2 v 0 l -2,0.3 c 0,0 0.2,1.6 -0.7,2.6 -0.3,0.4 -0.8,0.7 -1.5,0.9 0.3,-2.4 0,-4.6 0,-4.7 l -2,0.3 v 0 c 0.1,0.7 0.2,2.4 0,4.1 -1.3,-0.9 -1.3,-2.9 -1.3,-2.9 l -2,-0.1 v 0 c 0,1.4 0.5,4 2.9,5.1 -0.4,1.1 -1,2 -1.9,2.2 -1.5,-2.7 -3.4,-5 -5.3,-6.9 1.7,-2.3 2,-4.6 1.7,-6.5 1.6,-1 1.8,-3.6 1.8,-5.1 -0.7,0.1 -1.4,0.2 -2,0.4 0,0.8 -0.1,1.7 -0.4,2.3 -0.3,-0.8 -0.7,-1.5 -1,-2 -0.7,0.2 -1.4,0.4 -2.1,0.6 0.2,0.3 0.7,0.9 1.1,1.9 -0.7,-0.3 -1.6,-0.9 -2.2,-1.5 -0.7,0.2 -1.4,0.5 -2.2,0.8 0.4,0.4 2.8,2.7 5,3 0.2,1.4 -0.1,3.1 -1.2,4.7 -3.4,-2.9 -6.8,-4.7 -8.4,-5.5 -0.5,0.3 -1.1,0.6 -1.6,0.9 l -0.2,0.5 v 0 c 0,0 0.9,0.4 2.1,1 -1.5,0.4 -2.9,-0.2 -3.6,-0.5 -0.6,0.4 -1.2,0.9 -1.8,1.3 l 0.2,0.1 v 0 c 1.4,1 4.5,2 7.3,0.3 4,2.5 9.6,7 12.2,13.9 -0.9,0 -1.6,-0.1 -2.3,-0.4 0,-0.1 0.1,-0.2 0.1,-0.3 l -1,-0.2 c 0,0 0,0 0,0 l 1,0.2 c 0.3,-1.9 -2,-5.1 -2.1,-5.3 l -1.7,1.2 v 0 c 0.7,1 1.4,2.3 1.6,3.1 -1.2,-1 -1.8,-2.1 -1.8,-2.1 l -1.8,1 v 0 c 1.2,2 4.4,5.2 8.6,4.7 0.6,2 1,4.4 1.4,6.8 -2.2,-4.4 -6.1,-5.7 -10.3,-7.1 -0.1,0 -0.3,-0.1 -0.4,-0.1 0.2,-3.1 -1,-5.6 -2.4,-7.5 1.6,-2.6 -1.2,-5.7 -1.3,-5.9 l -1.5,1.4 v 0 c 0,0 1.3,1.4 1.3,2.7 -1.4,-1.4 -2.6,-2.2 -2.7,-2.2 l -1.1,1.8 v 0 c 0.1,0.1 1,0.6 2.1,1.7 -1,-0.3 -2.3,-1 -3,-1.7 l -1.3,1.6 c 0,0 3.5,3 6.1,2.1 1,1.4 1.9,3.3 1.9,5.5 -3.9,-1.7 -7.9,-4.6 -10.7,-6.9 0.8,-1.9 -0.6,-4.8 -1.2,-5.8 -0.5,0.5 -1,1 -1.5,1.5 0.5,1 0.9,2 0.9,2.8 -0.9,-0.8 -1.5,-1.4 -1.9,-1.7 -0.5,0.5 -0.9,1 -1.3,1.6 0.3,0.3 0.8,0.8 1.4,1.3 -0.7,-0.1 -1.4,-0.3 -2.1,-0.5 -0.4,0.6 -0.8,1.1 -1.2,1.7 1.2,0.5 3.6,1.3 5.4,0.5 2.9,2.4 7,5.5 11.2,7.3 -2.3,1.4 -5.2,2.2 -8.2,2.5 -0.2,-0.9 -0.6,-1.6 -1.3,-2.3 1.3,-2 -1.1,-5.6 -1.2,-5.8 l -1.7,1.2 v 0 c 0.8,1.1 1.2,2.4 1.2,3.1 -2.5,-1.8 -5.9,-2.9 -7.4,-3.4 -0.3,0.6 -0.7,1.2 -1,1.9 0.8,0.2 1.9,0.5 2.9,1 -1.2,0.8 -2.9,1 -3.8,1 -0.3,0.6 -0.5,1.2 -0.7,1.9 v 0.2 0 c 0.9,0 4.6,0 6.6,-2.2 1.9,1 3.6,2.2 4.1,3.6 -4.8,0.2 -9.3,-0.4 -11.1,-0.7 -0.2,0.7 -0.4,1.3 -0.6,2 1.3,0.2 4.7,0.8 8.7,0.8 -0.1,0.1 -0.1,0.1 -0.2,0.2 -1.2,1.2 -4.3,0.9 -4.3,0.9 l -0.2,2 v 0 c 0.7,0.1 4.1,0.2 5.9,-1.5 0.5,-0.5 0.8,-1.1 1,-1.7 4.7,-0.1 9.9,-1.1 13.3,-3.8 l 0.5,0.2 c 3.6,1.2 6.7,2.2 8.6,5.1 -5.5,-5.3 -12.4,-3.5 -19.3,0.8 -3.6,2.2 -7.5,3 -10.5,3.3 -0.9,-1.8 -3.3,-2.8 -4.3,-3.2 -0.1,0.7 -0.2,1.4 -0.3,2.1 0.7,0.3 1.6,0.7 2.2,1.2 -1.1,0 -1.9,0 -2.3,-0.1 -0.1,0.7 -0.1,1.4 -0.2,2 0.6,0 1.5,0.1 2.8,0.1 -0.6,0.6 -1.8,1.2 -2.8,1.5 0,0.2 0,0.4 0,0.7 0,0.5 0,1 0,1.5 1.3,-0.4 4.6,-1.4 5.2,-3.7 1.7,-0.2 3.7,-0.5 5.7,-1.1 -0.4,1 -1.1,2 -2.2,2.2 l 0.3,2 c 3,-0.5 4.1,-3.9 4.3,-5.1 1.1,-0.5 2.2,-1 3.2,-1.6 1.6,-1 3,-1.7 4.4,-2.3 -0.2,0.7 -0.4,1.4 -0.7,2.2 -1.7,-0.1 -4.2,1.7 -4.3,1.7 l 1.2,1.7 v 0 c 0.5,-0.4 1.1,-0.7 1.7,-1 -0.6,0.6 -1.3,1.1 -2.2,1.3 l 0.4,2 c 4.4,-0.9 5.8,-6.4 6.1,-8.8 4.5,-1.3 7.9,-0.4 10.8,2.8 3.6,4 1.9,10.3 0.9,13.1 -0.6,0.3 -2.4,1 -4.5,2.3 H 170 v 0 c -0.2,0 -5.1,0.5 -10.8,4 0,0 -0.1,0 -0.1,0.1 -1.1,-0.3 -5.4,-1.4 -9.3,-1.1 -3.6,0.2 -6.7,1.2 -7.6,1.5 0.2,0.6 0.5,1.3 0.7,1.9 0.6,-0.2 2,-0.6 3.7,-0.9 -1,0.8 -2.9,1.3 -3.5,1.4 0.3,0.6 0.6,1.3 0.9,1.9 1.7,-0.4 4.7,-1.4 5.3,-3.7 0.2,0 0.4,0 0.7,-0.1 2.2,-0.2 4.7,0.2 6.4,0.5 -1.9,0.9 -3.1,1.2 -4.5,1.6 -0.8,0.2 -1.6,0.4 -2.6,0.7 -2.3,0.8 -4.4,0.9 -5.3,1 0.3,0.7 0.7,1.3 1.1,2 1.2,-0.1 2.9,-0.4 4.8,-1 0.5,-0.2 1,-0.3 1.4,-0.4 -1,1 -2.7,2.2 -5.4,2.8 0.4,0.6 0.8,1.2 1.2,1.8 4.7,-1.3 6.7,-4.2 7.3,-5.5 1.5,-0.5 3.2,-1.2 5.8,-2.8 2.4,-1.5 4.7,-2.4 6.5,-2.9 -0.5,0.5 -1,1.1 -1.5,1.7 -0.5,0.7 -0.9,1.4 -1.3,2.1 -4,0.4 -6.1,2.3 -6.3,2.5 l 1.4,1.5 v 0 c 0.1,0 1.3,-1.2 3.8,-1.7 v 0 0 c 0,0.1 -1.1,1.9 -3.9,2.7 -0.9,0.2 -1.9,0.4 -2.9,0.6 -2.9,0.6 -5.8,1.2 -8,3.2 0.4,0.5 0.9,1.1 1.3,1.6 1.3,-1.3 3.2,-1.9 5.3,-2.4 -0.5,1.4 -1.5,3.3 -3.3,4.6 0.5,0.5 0.9,0.9 1.4,1.4 2.7,-1.9 3.8,-4.9 4.2,-6.5 0.8,-0.2 1.6,-0.3 2.4,-0.5 1,-0.3 1.8,-0.6 2.5,-1 -0.5,1.6 -1.2,3.2 -2.6,4.9 -2.9,3.6 -4.6,4.4 -4.9,4.5 0.6,0.5 1.2,0.9 1.8,1.4 0.9,-0.6 2.3,-1.8 4.3,-4.1 -0.3,2 -0.9,4.3 -2.2,5.6 0.6,0.4 1.2,0.7 1.7,1 2.6,-2.9 2.7,-8.3 2.7,-9.9 0.7,-1.5 1.1,-2.9 1.5,-4.3 0.5,-1.9 1.1,-3.8 2.5,-5.8 1.5,-1.9 3.5,-3.4 5.2,-4.5 -0.8,1.3 -1.4,2.8 -1.8,4.6 -1.6,1.2 -5.1,4.4 -5.1,10.9 h 2 c 0,-3.9 1.4,-6.4 2.7,-7.8 0,0.9 -0.1,1.7 -0.1,2.3 -0.1,3.1 -0.1,3.1 -1.2,6.3 -1.2,3.2 -4.6,7.8 -5.8,9.5 0.6,0.3 1.3,0.6 1.9,0.8 1.1,-1.5 3.2,-4.5 4.7,-7.2 -0.1,2.8 -0.5,6.1 -1.8,8.2 0.7,0.2 1.3,0.4 2,0.6 2.4,-4.6 1.9,-11.7 1.7,-13.5 0.5,-1.5 0.5,-2.3 0.6,-4.7 0,-0.8 0.1,-1.8 0.1,-3.1 0.2,-4.4 2.4,-7.2 3.9,-8.6 -1.1,3.5 -1.5,6.9 -1.2,9.8 0,0.3 0.1,0.6 0.1,0.9 -0.6,0.7 -2.9,3.8 -2.6,9.1 l 2,-0.1 c -0.1,-2.6 0.4,-4.5 1,-5.8 0.4,2.8 0.6,4.8 0.3,7 -0.3,2.5 -2.7,7.5 -3.7,9.5 0.7,0.1 1.4,0.3 2.1,0.4 0.4,-0.8 1.1,-2.2 1.8,-3.8 0.3,0.9 0.6,2.2 0.6,4.1 0.7,0.1 1.4,0.1 2,0.1 0,-3.8 -1.1,-5.9 -1.6,-6.7 0.4,-1.2 0.8,-2.3 0.9,-3.2 0.4,-2.8 0,-5.2 -0.4,-8.6 -0.1,-0.9 -0.3,-1.9 -0.4,-3 -0.5,-4.1 0.9,-8.3 1.4,-9.7 0.9,2 2.9,7.7 1.2,14.3 -1.6,6.1 -0.9,14.3 -0.7,16.9 0.3,0 0.7,0 1,0 0.3,0 0.7,0 1,0 -0.2,-1.6 -0.9,-10.3 0.6,-16.4 1.6,-6.2 1,-11.8 0.1,-14.7 0.5,1.5 1.8,5.6 1.3,9.6 -0.1,1.1 -0.3,2.1 -0.4,3 -0.5,3.4 -0.8,5.8 -0.4,8.6 0.1,0.9 0.5,2.1 0.9,3.2 -0.5,0.8 -1.7,2.9 -1.6,6.7 0.7,0 1.4,-0.1 2,-0.1 0,-1.8 0.3,-3.2 0.6,-4 0.7,1.5 1.3,2.9 1.8,3.8 0.7,-0.1 1.4,-0.2 2.1,-0.4 -1,-2 -3.4,-7 -3.7,-9.4 -0.3,-2.2 -0.1,-4.2 0.3,-7 0.6,1.3 1.1,3.2 1,5.8 l 2,0.1 c 0.3,-5.3 -2,-8.4 -2.6,-9.1 0,-0.3 0.1,-0.6 0.1,-0.9 0.3,-2.9 -0.1,-6.3 -1.2,-9.8 1.5,1.4 3.7,4.2 3.9,8.6 0.1,1.3 0.1,2.3 0.1,3.1 0.1,2.4 0.1,3.2 0.6,4.7 -0.2,1.7 -0.7,8.9 1.7,13.4 0.7,-0.2 1.4,-0.4 2,-0.6 -1.3,-2.2 -1.7,-5.4 -1.8,-8.2 1.4,2.7 3.5,5.6 4.7,7.2 0.7,-0.3 1.3,-0.5 1.9,-0.8 -1.3,-1.7 -4.7,-6.3 -5.8,-9.5 -1.1,-3.1 -1.1,-3.1 -1.2,-6.3 0,-0.6 0,-1.4 -0.1,-2.3 1.3,1.5 2.7,4 2.7,7.8 h 2 c 0,-6.5 -3.5,-9.7 -5.1,-10.9 -0.4,-1.8 -1,-3.4 -1.8,-4.6 1.7,1 3.8,2.5 5.2,4.5 1.5,1.9 2,3.8 2.5,5.8 0.4,1.4 0.8,2.8 1.5,4.3 0,1.6 0.1,7 2.6,9.9 0.6,-0.3 1.2,-0.7 1.8,-1.1 -1.3,-1.3 -1.9,-3.5 -2.2,-5.5 1.9,2.3 3.3,3.5 4.2,4.1 0.6,-0.4 1.2,-0.9 1.8,-1.4 -0.4,-0.2 -2,-1 -4.8,-4.5 -1.4,-1.7 -2.1,-3.3 -2.6,-4.9 0.7,0.4 1.5,0.8 2.5,1 0.8,0.2 1.6,0.4 2.4,0.5 0.4,1.5 1.5,4.5 4.1,6.4 0.5,-0.5 1,-0.9 1.5,-1.4 -1.7,-1.2 -2.7,-3.1 -3.3,-4.5 2,0.5 3.9,1.1 5.2,2.3 0.4,-0.5 0.9,-1 1.3,-1.6 -2.1,-2 -5.1,-2.6 -7.9,-3.1 -1,-0.2 -2,-0.4 -2.9,-0.6 -2.8,-0.7 -3.9,-2.6 -3.9,-2.7 v 0 c 2.5,0.6 3.7,1.7 3.8,1.7 v 0 l 1.4,-1.5 c -0.2,-0.2 -2.3,-2 -6.3,-2.5 -0.3,-0.7 -0.8,-1.4 -1.3,-2.1 -0.4,-0.6 -0.9,-1.1 -1.5,-1.7 1.8,0.5 4,1.4 6.5,2.9 2.6,1.6 4.3,2.3 5.8,2.8 0.6,1.3 2.5,4.1 7.2,5.4 0.4,-0.6 0.8,-1.2 1.2,-1.8 -2.6,-0.6 -4.3,-1.8 -5.3,-2.8 0.5,0.1 0.9,0.3 1.4,0.4 1.9,0.6 3.5,0.9 4.7,1 0.4,-0.6 0.7,-1.3 1.1,-2 -0.9,-0.1 -2.9,-0.3 -5.1,-1 -1,-0.3 -1.8,-0.5 -2.6,-0.7 -1.4,-0.3 -2.6,-0.7 -4.5,-1.6 1.8,-0.3 4.2,-0.7 6.4,-0.5 0.2,0 0.4,0 0.7,0.1 0.6,2.2 3.5,3.2 5.2,3.6 0.3,-0.6 0.6,-1.3 0.9,-1.9 -0.7,-0.1 -2.4,-0.6 -3.4,-1.4 1.7,0.3 3,0.7 3.6,0.9 0.3,-0.6 0.5,-1.3 0.7,-1.9 -1.1,-0.3 -4,-1.2 -7.5,-1.5 -3.8,-0.3 -8.1,0.8 -9.3,1.1 0,0 -0.1,0 -0.1,-0.1 -5.7,-3.4 -10.6,-4 -10.8,-4 h -0.3 c -2,-1.3 -3.9,-2.1 -4.5,-2.4 -1,-2.7 -2.7,-9.1 0.9,-13.1 2.9,-3.2 6.3,-4.1 10.8,-2.8 0.4,2.4 1.7,7.9 6.1,8.8 l 0.4,-2 c -0.9,-0.2 -1.6,-0.7 -2.2,-1.3 0.6,0.3 1.2,0.6 1.7,1 v 0 l 1.2,-1.7 c -0.1,-0.1 -2.7,-1.8 -4.3,-1.7 -0.3,-0.8 -0.5,-1.5 -0.7,-2.2 1.4,0.6 2.9,1.4 4.4,2.3 1.1,0.7 2.1,1.2 3.2,1.6 0.3,1.2 1.3,4.7 4.3,5.1 l 0.3,-2 c -1.1,-0.2 -1.8,-1.2 -2.2,-2.2 2,0.6 4,1 5.7,1.1 0.6,2.2 3.7,3.3 5.1,3.7 0,-0.5 0,-0.9 0,-1.4 0,-0.2 0,-0.5 0,-0.7 -1,-0.3 -2.1,-0.8 -2.7,-1.4 2.2,-0.1 3.2,-0.2 3.7,-0.2 z"
   class="st2" />
</g>  <g
    class="text"
    transform="matrix(1.1584395,0,0,1.1584395,-150.45177,-48.783744)"
    aria-label="Oak-Tree">

     <path d="m 245.25478,71.372781 c -8.64,0 -14.976,6.72 -14.976,16.992 0,9.792 5.952,16.463999 14.544,16.463999 8.256,0 15.024,-5.951999 15.024,-17.039999 0,-9.648 -5.712,-16.416 -14.592,-16.416 z m -0.144,3.408 c 6.96,0 10.32,6.72 10.32,13.2 0,7.344 -3.744,13.439999 -10.368,13.439999 -6.624,0 -10.368,-6.191999 -10.368,-13.151999 0,-7.056 3.456,-13.488 10.416,-13.488 z"/>
     <path d="m 281.46853,90.044781 c 0,-4.608 -1.728,-9.456 -8.832,-9.456 -2.928,0 -5.76,0.816 -7.68,2.016 l 0.96,2.832 c 1.632,-1.104 3.888,-1.728 6.096,-1.728 4.752,-0.048 5.28,3.456 5.28,5.328 v 0.48 c -8.976,-0.048 -13.968,3.024 -13.968,8.64 0,3.359999 2.4,6.671999 7.104,6.671999 3.312,0 5.808,-1.632 7.104,-3.456 h 0.144 l 0.336,2.928 h 3.792 c -0.24,-1.584 -0.336,-3.552 -0.336,-5.567999 z m -4.08,6.432 c 0,0.384 -0.048,0.864 -0.192,1.344 -0.672,1.968 -2.64,3.887999 -5.712,3.887999 -2.112,0 -3.936,-1.248 -3.936,-4.031999 0,-4.512 5.232,-5.328 9.84,-5.232 z"/>
     <path d="m 292.48078,70.220781 h -4.176 v 34.079999 h 4.176 v -8.735999 l 2.16,-2.4 7.968,11.135999 h 5.184 l -10.224,-13.679999 8.928,-9.552 h -5.04 l -6.864,8.016 c -0.672,0.816 -1.44,1.824 -2.016,2.64 h -0.096 z"/>
     <path d="m 308.27203,89.804781 v 3.072 h 11.856 v -3.072 z"/>
     <path d="m 328.90528,104.30078 h 4.224 V 75.500781 h 9.888 v -3.552 h -23.952 v 3.552 h 9.84 z"/>
     <path d="m 344.27353,104.30078 h 4.224 V 91.916781 c 0,-0.672 0.048,-1.392 0.144,-1.968 0.576,-3.168 2.688,-5.376 5.664,-5.376 0.576,0 1.008,0 1.44,0.096 v -3.984 c -0.384,-0.048 -0.72,-0.096 -1.152,-0.096 -2.832,0 -5.424,1.968 -6.48,5.088 h -0.144 l -0.192,-4.608 h -3.696 c 0.144,2.16 0.192,4.512 0.192,7.248 z"/>
     <path d="m 378.13303,93.452781 c 0.096,-0.48 0.144,-1.104 0.144,-1.968 0,-4.272 -1.968,-10.896 -9.6,-10.896 -6.768,0 -10.896,5.472 -10.896,12.48 0,7.007999 4.272,11.759999 11.424,11.759999 3.696,0 6.288,-0.816 7.776,-1.488 l -0.768,-3.024 c -1.536,0.672 -3.408,1.2 -6.432,1.2 -4.272,0 -7.872,-2.351999 -7.968,-8.063999 z m -16.272,-3.024 c 0.336,-2.928 2.16,-6.816 6.48,-6.816 4.752,0 5.904,4.176 5.856,6.816 z"/>
     <path d="m 402.22678,93.452781 c 0.096,-0.48 0.144,-1.104 0.144,-1.968 0,-4.272 -1.968,-10.896 -9.6,-10.896 -6.768,0 -10.896,5.472 -10.896,12.48 0,7.007999 4.272,11.759999 11.424,11.759999 3.696,0 6.288,-0.816 7.776,-1.488 l -0.768,-3.024 c -1.536,0.672 -3.408,1.2 -6.432,1.2 -4.272,0 -7.872,-2.351999 -7.968,-8.063999 z m -16.272,-3.024 c 0.336,-2.928 2.16,-6.816 6.48,-6.816 4.752,0 5.904,4.176 5.856,6.816 z"/>
     </g></g></svg>
